<?xml version="1.0" encoding="UTF-8"?> <svg xmlns="http://www.w3.org/2000/svg" xmlns:xlink="http://www.w3.org/1999/xlink" width="426" height="396" viewBox="0 0 426 396"><defs><path id="prefix__a" d="M137.126 49.322c-15.34 16.846-20.255 5.475-29.862-5.898-6.723-7.954-15.739-15.907-32.226-14.203C34.979 33.364-60.447 216.658 58.55 208.197c53.748-3.821 32.227 41.676 69.27 51.95 71.44 19.81 75.564-38.871 104.843-42.908 8.402-1.16 12.6 11.893 17.89 24.946 10.2 25.159 24.465 50.316 80.766-26.28 27.555-37.488 54.263-139.584-30.131-123.202-27.572 5.35-9.124-48.159-37.567-74.518C253.487 8.79 239.102.792 220.887.792c-22.394 0-50.573 12.088-83.76 48.53z"></path><path id="prefix__c" d="M137.126 49.322c-15.34 16.846-20.255 5.475-29.862-5.898-6.723-7.954-15.739-15.907-32.226-14.203C34.979 33.364-60.447 216.658 58.55 208.197c53.748-3.821 32.227 41.676 69.27 51.95 71.44 19.81 75.564-38.871 104.843-42.908 8.402-1.16 12.6 11.893 17.89 24.946 10.2 25.159 24.465 50.316 80.766-26.28 27.555-37.488 54.263-139.584-30.131-123.202-27.572 5.35-9.124-48.159-37.567-74.518C253.487 8.79 239.102.792 220.887.792c-22.394 0-50.573 12.088-83.76 48.53"></path><path id="prefix__e" d="M137.126 49.322c-15.34 16.846-20.255 5.475-29.862-5.898-6.723-7.954-15.739-15.907-32.226-14.203C34.979 33.364-60.447 216.658 58.55 208.197c53.748-3.821 32.227 41.676 69.27 51.95 71.44 19.81 75.564-38.871 104.843-42.908 8.402-1.16 12.6 11.893 17.89 24.946 10.2 25.159 24.465 50.316 80.766-26.28 27.555-37.488 54.263-139.584-30.131-123.202-27.572 5.35-9.124-48.159-37.567-74.518C253.487 8.79 239.102.792 220.887.792c-22.394 0-50.573 12.088-83.76 48.53"></path><path id="prefix__g" d="M137.126 49.322c-15.34 16.846-20.255 5.475-29.862-5.898-6.723-7.954-15.739-15.907-32.226-14.203C34.979 33.364-60.447 216.658 58.55 208.197c53.748-3.821 32.227 41.676 69.27 51.95 71.44 19.81 75.564-38.871 104.843-42.908 8.402-1.16 12.6 11.893 17.89 24.946 10.2 25.159 24.465 50.316 80.766-26.28 27.555-37.488 54.263-139.584-30.131-123.202-27.572 5.35-9.124-48.159-37.567-74.518C253.487 8.79 239.102.792 220.887.792c-22.394 0-50.573 12.088-83.76 48.53"></path><path id="prefix__i" d="M137.126 49.322c-15.34 16.846-20.255 5.475-29.862-5.898-6.723-7.954-15.739-15.907-32.226-14.203C34.979 33.364-60.447 216.658 58.55 208.197c53.748-3.821 32.227 41.676 69.27 51.95 71.44 19.81 75.564-38.871 104.843-42.908 8.402-1.16 12.6 11.893 17.89 24.946 10.2 25.159 24.465 50.316 80.766-26.28 27.555-37.488 54.263-139.584-30.131-123.202-27.572 5.35-9.124-48.159-37.567-74.518C253.487 8.79 239.102.792 220.887.792c-22.394 0-50.573 12.088-83.76 48.53"></path><path id="prefix__k" d="M137.126 49.322c-15.34 16.846-20.255 5.475-29.862-5.898-6.723-7.954-15.739-15.907-32.226-14.203C34.979 33.364-60.447 216.658 58.55 208.197c53.748-3.821 32.227 41.676 69.27 51.95 71.44 19.81 75.564-38.871 104.843-42.908 8.402-1.16 12.6 11.893 17.89 24.946 10.2 25.159 24.465 50.316 80.766-26.28 27.555-37.488 54.263-139.584-30.131-123.202-27.572 5.35-9.124-48.159-37.567-74.518C253.487 8.79 239.102.792 220.887.792c-22.394 0-50.573 12.088-83.76 48.53"></path><path id="prefix__m" d="M137.126 49.322c-15.34 16.846-20.255 5.475-29.862-5.898-6.723-7.954-15.739-15.907-32.226-14.203C34.979 33.364-60.447 216.658 58.55 208.197c53.748-3.821 32.227 41.676 69.27 51.95 71.44 19.81 75.564-38.871 104.843-42.908 8.402-1.16 12.6 11.893 17.89 24.946 10.2 25.159 24.465 50.316 80.766-26.28 27.555-37.488 54.263-139.584-30.131-123.202-27.572 5.35-9.124-48.159-37.567-74.518C253.487 8.79 239.102.792 220.887.792c-22.394 0-50.573 12.088-83.76 48.53"></path><path id="prefix__o" d="M137.126 49.322c-15.34 16.846-20.255 5.475-29.862-5.898-6.723-7.954-15.739-15.907-32.226-14.203C34.979 33.364-60.447 216.658 58.55 208.197c53.748-3.821 32.227 41.676 69.27 51.95 71.44 19.81 75.564-38.871 104.843-42.908 8.402-1.16 12.6 11.893 17.89 24.946 10.2 25.159 24.465 50.316 80.766-26.28 27.555-37.488 54.263-139.584-30.131-123.202-27.572 5.35-9.124-48.159-37.567-74.518C253.487 8.79 239.102.792 220.887.792c-22.394 0-50.573 12.088-83.76 48.53"></path><path id="prefix__q" d="M137.126 49.322c-15.34 16.846-20.255 5.475-29.862-5.898-6.723-7.954-15.739-15.907-32.226-14.203C34.979 33.364-60.447 216.658 58.55 208.197c53.748-3.821 32.227 41.676 69.27 51.95 71.44 19.81 75.564-38.871 104.843-42.908 8.402-1.16 12.6 11.893 17.89 24.946 10.2 25.159 24.465 50.316 80.766-26.28 27.555-37.488 54.263-139.584-30.131-123.202-27.572 5.35-9.124-48.159-37.567-74.518C253.487 8.79 239.102.792 220.887.792c-22.394 0-50.573 12.088-83.76 48.53"></path><path id="prefix__s" d="M137.126 49.322c-15.34 16.846-20.255 5.475-29.862-5.898-6.723-7.954-15.739-15.907-32.226-14.203C34.979 33.364-60.447 216.658 58.55 208.197c53.748-3.821 32.227 41.676 69.27 51.95 71.44 19.81 75.564-38.871 104.843-42.908 8.402-1.16 12.6 11.893 17.89 24.946 10.2 25.159 24.465 50.316 80.766-26.28 27.555-37.488 54.263-139.584-30.131-123.202-27.572 5.35-9.124-48.159-37.567-74.518C253.487 8.79 239.102.792 220.887.792c-22.394 0-50.573 12.088-83.76 48.53"></path><path id="prefix__u" d="M137.126 49.322c-15.34 16.846-20.255 5.475-29.862-5.898-6.723-7.954-15.739-15.907-32.226-14.203C34.979 33.364-60.447 216.658 58.55 208.197c53.748-3.821 32.227 41.676 69.27 51.95 71.44 19.81 75.564-38.871 104.843-42.908 8.402-1.16 12.6 11.893 17.89 24.946 10.2 25.159 24.465 50.316 80.766-26.28 27.555-37.488 54.263-139.584-30.131-123.202-27.572 5.35-9.124-48.159-37.567-74.518C253.487 8.79 239.102.792 220.887.792c-22.394 0-50.573 12.088-83.76 48.53"></path><path id="prefix__w" d="M137.126 49.322c-15.34 16.846-20.255 5.475-29.862-5.898-6.723-7.954-15.739-15.907-32.226-14.203C34.979 33.364-60.447 216.658 58.55 208.197c53.748-3.821 32.227 41.676 69.27 51.95 71.44 19.81 75.564-38.871 104.843-42.908 8.402-1.16 12.6 11.893 17.89 24.946 10.2 25.159 24.465 50.316 80.766-26.28 27.555-37.488 54.263-139.584-30.131-123.202-27.572 5.35-9.124-48.159-37.567-74.518C253.487 8.79 239.102.792 220.887.792c-22.394 0-50.573 12.088-83.76 48.53"></path><path id="prefix__y" d="M137.126 49.322c-15.34 16.846-20.255 5.475-29.862-5.898-6.723-7.954-15.739-15.907-32.226-14.203C34.979 33.364-60.447 216.658 58.55 208.197c53.748-3.821 32.227 41.676 69.27 51.95 71.44 19.81 75.564-38.871 104.843-42.908 8.402-1.16 12.6 11.893 17.89 24.946 10.2 25.159 24.465 50.316 80.766-26.28 27.555-37.488 54.263-139.584-30.131-123.202-27.572 5.35-9.124-48.159-37.567-74.518C253.487 8.79 239.102.792 220.887.792c-22.394 0-50.573 12.088-83.76 48.53"></path><path id="prefix__A" d="M137.126 49.322c-15.34 16.846-20.255 5.475-29.862-5.898-6.723-7.954-15.739-15.907-32.226-14.203C34.979 33.364-60.447 216.658 58.55 208.197c53.748-3.821 32.227 41.676 69.27 51.95 71.44 19.81 75.564-38.871 104.843-42.908 8.402-1.16 12.6 11.893 17.89 24.946 10.2 25.159 24.465 50.316 80.766-26.28 27.555-37.488 54.263-139.584-30.131-123.202-27.572 5.35-9.124-48.159-37.567-74.518C253.487 8.79 239.102.792 220.887.792c-22.394 0-50.573 12.088-83.76 48.53"></path><path id="prefix__C" d="M137.126 49.322c-15.34 16.846-20.255 5.475-29.862-5.898-6.723-7.954-15.739-15.907-32.226-14.203C34.979 33.364-60.447 216.658 58.55 208.197c53.748-3.821 32.227 41.676 69.27 51.95 71.44 19.81 75.564-38.871 104.843-42.908 8.402-1.16 12.6 11.893 17.89 24.946 10.2 25.159 24.465 50.316 80.766-26.28 27.555-37.488 54.263-139.584-30.131-123.202-27.572 5.35-9.124-48.159-37.567-74.518C253.487 8.79 239.102.792 220.887.792c-22.394 0-50.573 12.088-83.76 48.53"></path><path id="prefix__E" d="M137.126 49.322c-15.34 16.846-20.255 5.475-29.862-5.898-6.723-7.954-15.739-15.907-32.226-14.203C34.979 33.364-60.447 216.658 58.55 208.197c53.748-3.821 32.227 41.676 69.27 51.95 71.44 19.81 75.564-38.871 104.843-42.908 8.402-1.16 12.6 11.893 17.89 24.946 10.2 25.159 24.465 50.316 80.766-26.28 27.555-37.488 54.263-139.584-30.131-123.202-27.572 5.35-9.124-48.159-37.567-74.518C253.487 8.79 239.102.792 220.887.792c-22.394 0-50.573 12.088-83.76 48.53"></path><path id="prefix__G" d="M137.126 49.322c-15.34 16.846-20.255 5.475-29.862-5.898-6.723-7.954-15.739-15.907-32.226-14.203C34.979 33.364-60.447 216.658 58.55 208.197c53.748-3.821 32.227 41.676 69.27 51.95 71.44 19.81 75.564-38.871 104.843-42.908 8.402-1.16 12.6 11.893 17.89 24.946 10.2 25.159 24.465 50.316 80.766-26.28 27.555-37.488 54.263-139.584-30.131-123.202-27.572 5.35-9.124-48.159-37.567-74.518C253.487 8.79 239.102.792 220.887.792c-22.394 0-50.573 12.088-83.76 48.53"></path><path id="prefix__I" d="M137.126 49.322c-15.34 16.846-20.255 5.475-29.862-5.898-6.723-7.954-15.739-15.907-32.226-14.203C34.979 33.364-60.447 216.658 58.55 208.197c53.748-3.821 32.227 41.676 69.27 51.95 71.44 19.81 75.564-38.871 104.843-42.908 8.402-1.16 12.6 11.893 17.89 24.946 10.2 25.159 24.465 50.316 80.766-26.28 27.555-37.488 54.263-139.584-30.131-123.202-27.572 5.35-9.124-48.159-37.567-74.518C253.487 8.79 239.102.792 220.887.792c-22.394 0-50.573 12.088-83.76 48.53"></path><path id="prefix__K" d="M137.126 49.322c-15.34 16.846-20.255 5.475-29.862-5.898-6.723-7.954-15.739-15.907-32.226-14.203C34.979 33.364-60.447 216.658 58.55 208.197c53.748-3.821 32.227 41.676 69.27 51.95 71.44 19.81 75.564-38.871 104.843-42.908 8.402-1.16 12.6 11.893 17.89 24.946 10.2 25.159 24.465 50.316 80.766-26.28 27.555-37.488 54.263-139.584-30.131-123.202-27.572 5.35-9.124-48.159-37.567-74.518C253.487 8.79 239.102.792 220.887.792c-22.394 0-50.573 12.088-83.76 48.53"></path><path id="prefix__M" d="M137.126 49.322c-15.34 16.846-20.255 5.475-29.862-5.898-6.723-7.954-15.739-15.907-32.226-14.203C34.979 33.364-60.447 216.658 58.55 208.197c53.748-3.821 32.227 41.676 69.27 51.95 71.44 19.81 75.564-38.871 104.843-42.908 8.402-1.16 12.6 11.893 17.89 24.946 10.2 25.159 24.465 50.316 80.766-26.28 27.555-37.488 54.263-139.584-30.131-123.202-27.572 5.35-9.124-48.159-37.567-74.518C253.487 8.79 239.102.792 220.887.792c-22.394 0-50.573 12.088-83.76 48.53"></path><path id="prefix__O" d="M137.126 49.322c-15.34 16.846-20.255 5.475-29.862-5.898-6.723-7.954-15.739-15.907-32.226-14.203C34.979 33.364-60.447 216.658 58.55 208.197c53.748-3.821 32.227 41.676 69.27 51.95 71.44 19.81 75.564-38.871 104.843-42.908 8.402-1.16 12.6 11.893 17.89 24.946 10.2 25.159 24.465 50.316 80.766-26.28 27.555-37.488 54.263-139.584-30.131-123.202-27.572 5.35-9.124-48.159-37.567-74.518C253.487 8.79 239.102.792 220.887.792c-22.394 0-50.573 12.088-83.76 48.53"></path><path id="prefix__Q" d="M137.126 49.322c-15.34 16.846-20.255 5.475-29.862-5.898-6.723-7.954-15.739-15.907-32.226-14.203C34.979 33.364-60.447 216.658 58.55 208.197c53.748-3.821 32.227 41.676 69.27 51.95 71.44 19.81 75.564-38.871 104.843-42.908 8.402-1.16 12.6 11.893 17.89 24.946 10.2 25.159 24.465 50.316 80.766-26.28 27.555-37.488 54.263-139.584-30.131-123.202-27.572 5.35-9.124-48.159-37.567-74.518C253.487 8.79 239.102.792 220.887.792c-22.394 0-50.573 12.088-83.76 48.53"></path><path id="prefix__S" d="M137.126 49.322c-15.34 16.846-20.255 5.475-29.862-5.898-6.723-7.954-15.739-15.907-32.226-14.203C34.979 33.364-60.447 216.658 58.55 208.197c53.748-3.821 32.227 41.676 69.27 51.95 71.44 19.81 75.564-38.871 104.843-42.908 8.402-1.16 12.6 11.893 17.89 24.946 10.2 25.159 24.465 50.316 80.766-26.28 27.555-37.488 54.263-139.584-30.131-123.202-27.572 5.35-9.124-48.159-37.567-74.518C253.487 8.79 239.102.792 220.887.792c-22.394 0-50.573 12.088-83.76 48.53"></path><path id="prefix__U" d="M137.126 49.322c-15.34 16.846-20.255 5.475-29.862-5.898-6.723-7.954-15.739-15.907-32.226-14.203C34.979 33.364-60.447 216.658 58.55 208.197c53.748-3.821 32.227 41.676 69.27 51.95 71.44 19.81 75.564-38.871 104.843-42.908 8.402-1.16 12.6 11.893 17.89 24.946 10.2 25.159 24.465 50.316 80.766-26.28 27.555-37.488 54.263-139.584-30.131-123.202-27.572 5.35-9.124-48.159-37.567-74.518C253.487 8.79 239.102.792 220.887.792c-22.394 0-50.573 12.088-83.76 48.53"></path><path id="prefix__W" d="M137.126 49.322c-15.34 16.846-20.255 5.475-29.862-5.898-6.723-7.954-15.739-15.907-32.226-14.203C34.979 33.364-60.447 216.658 58.55 208.197c53.748-3.821 32.227 41.676 69.27 51.95 71.44 19.81 75.564-38.871 104.843-42.908 8.402-1.16 12.6 11.893 17.89 24.946 10.2 25.159 24.465 50.316 80.766-26.28 27.555-37.488 54.263-139.584-30.131-123.202-27.572 5.35-9.124-48.159-37.567-74.518C253.487 8.79 239.102.792 220.887.792c-22.394 0-50.573 12.088-83.76 48.53"></path><path id="prefix__Y" d="M137.126 49.322c-15.34 16.846-20.255 5.475-29.862-5.898-6.723-7.954-15.739-15.907-32.226-14.203C34.979 33.364-60.447 216.658 58.55 208.197c53.748-3.821 32.227 41.676 69.27 51.95 71.44 19.81 75.564-38.871 104.843-42.908 8.402-1.16 12.6 11.893 17.89 24.946 10.2 25.159 24.465 50.316 80.766-26.28 27.555-37.488 54.263-139.584-30.131-123.202-27.572 5.35-9.124-48.159-37.567-74.518C253.487 8.79 239.102.792 220.887.792c-22.394 0-50.573 12.088-83.76 48.53"></path><path id="prefix__aa" d="M137.126 49.322c-15.34 16.846-20.255 5.475-29.862-5.898-6.723-7.954-15.739-15.907-32.226-14.203C34.979 33.364-60.447 216.658 58.55 208.197c53.748-3.821 32.227 41.676 69.27 51.95 71.44 19.81 75.564-38.871 104.843-42.908 8.402-1.16 12.6 11.893 17.89 24.946 10.2 25.159 24.465 50.316 80.766-26.28 27.555-37.488 54.263-139.584-30.131-123.202-27.572 5.35-9.124-48.159-37.567-74.518C253.487 8.79 239.102.792 220.887.792c-22.394 0-50.573 12.088-83.76 48.53"></path><path id="prefix__ac" d="M137.126 49.322c-15.34 16.846-20.255 5.475-29.862-5.898-6.723-7.954-15.739-15.907-32.226-14.203C34.979 33.364-60.447 216.658 58.55 208.197c53.748-3.821 32.227 41.676 69.27 51.95 71.44 19.81 75.564-38.871 104.843-42.908 8.402-1.16 12.6 11.893 17.89 24.946 10.2 25.159 24.465 50.316 80.766-26.28 27.555-37.488 54.263-139.584-30.131-123.202-27.572 5.35-9.124-48.159-37.567-74.518C253.487 8.79 239.102.792 220.887.792c-22.394 0-50.573 12.088-83.76 48.53"></path><path id="prefix__ae" d="M137.126 49.322c-15.34 16.846-20.255 5.475-29.862-5.898-6.723-7.954-15.739-15.907-32.226-14.203C34.979 33.364-60.447 216.658 58.55 208.197c53.748-3.821 32.227 41.676 69.27 51.95 71.44 19.81 75.564-38.871 104.843-42.908 8.402-1.16 12.6 11.893 17.89 24.946 10.2 25.159 24.465 50.316 80.766-26.28 27.555-37.488 54.263-139.584-30.131-123.202-27.572 5.35-9.124-48.159-37.567-74.518C253.487 8.79 239.102.792 220.887.792c-22.394 0-50.573 12.088-83.76 48.53"></path><path id="prefix__ag" d="M137.126 49.322c-15.34 16.846-20.255 5.475-29.862-5.898-6.723-7.954-15.739-15.907-32.226-14.203C34.979 33.364-60.447 216.658 58.55 208.197c53.748-3.821 32.227 41.676 69.27 51.95 71.44 19.81 75.564-38.871 104.843-42.908 8.402-1.16 12.6 11.893 17.89 24.946 10.2 25.159 24.465 50.316 80.766-26.28 27.555-37.488 54.263-139.584-30.131-123.202-27.572 5.35-9.124-48.159-37.567-74.518C253.487 8.79 239.102.792 220.887.792c-22.394 0-50.573 12.088-83.76 48.53"></path><path id="prefix__ai" d="M137.126 49.322c-15.34 16.846-20.255 5.475-29.862-5.898-6.723-7.954-15.739-15.907-32.226-14.203C34.979 33.364-60.447 216.658 58.55 208.197c53.748-3.821 32.227 41.676 69.27 51.95 71.44 19.81 75.564-38.871 104.843-42.908 8.402-1.16 12.6 11.893 17.89 24.946 10.2 25.159 24.465 50.316 80.766-26.28 27.555-37.488 54.263-139.584-30.131-123.202-27.572 5.35-9.124-48.159-37.567-74.518C253.487 8.79 239.102.792 220.887.792c-22.394 0-50.573 12.088-83.76 48.53z"></path><path id="prefix__ak" d="M137.126 49.322c-15.34 16.846-20.255 5.475-29.862-5.898-6.723-7.954-15.739-15.907-32.226-14.203C34.979 33.364-60.447 216.658 58.55 208.197c53.748-3.821 32.227 41.676 69.27 51.95 71.44 19.81 75.564-38.871 104.843-42.908 8.402-1.16 12.6 11.893 17.89 24.946 10.2 25.159 24.465 50.316 80.766-26.28 27.555-37.488 54.263-139.584-30.131-123.202-27.572 5.35-9.124-48.159-37.567-74.518C253.487 8.79 239.102.792 220.887.792c-22.394 0-50.573 12.088-83.76 48.53z"></path><path id="prefix__am" d="M137.126 49.322c-15.34 16.846-20.255 5.475-29.862-5.898-6.723-7.954-15.739-15.907-32.226-14.203C34.979 33.364-60.447 216.658 58.55 208.197c53.748-3.821 32.227 41.676 69.27 51.95 71.44 19.81 75.564-38.871 104.843-42.908 8.402-1.16 12.6 11.893 17.89 24.946 10.2 25.159 24.465 50.316 80.766-26.28 27.555-37.488 54.263-139.584-30.131-123.202-27.572 5.35-9.124-48.159-37.567-74.518C253.487 8.79 239.102.792 220.887.792c-22.394 0-50.573 12.088-83.76 48.53z"></path><path id="prefix__ap" d="M-0.003 0.292L4.202 0.292 4.202 64.931 -0.003 64.931z"></path><path id="prefix__ar" d="M0.106 0.292L4.312 0.292 4.312 64.931 0.106 64.931z"></path><path id="prefix__at" d="M0.038 0.292L4.244 0.292 4.244 64.931 0.038 64.931z"></path><path id="prefix__av" d="M0 0.258L63.799 0.258 63.799 85.699 0 85.699z"></path><path id="prefix__ax" d="M0.701 0.292L4.907 0.292 4.907 64.931 0.701 64.931z"></path><path id="prefix__az" d="M0.811 0.292L5.016 0.292 5.016 64.931 0.811 64.931z"></path><path id="prefix__aB" d="M0.592 0.292L4.799 0.292 4.799 64.931 0.592 64.931z"></path><linearGradient id="prefix__ao" x1="25.393%" x2="76.917%" y1="97.226%" y2="14.848%"><stop offset="0%" stop-color="#793D8F"></stop><stop offset="100%" stop-color="#E9515B"></stop></linearGradient><linearGradient id="prefix__aD" x1="17.006%" x2="86.091%" y1="97.226%" y2="14.848%"><stop offset="0%" stop-color="#793D8F"></stop><stop offset="100%" stop-color="#E9515B"></stop></linearGradient><linearGradient id="prefix__aE" x1="35.849%" x2="65.48%" y1="97.226%" y2="14.848%"><stop offset="0%" stop-color="#793D8F"></stop><stop offset="100%" stop-color="#E9515B"></stop></linearGradient><linearGradient id="prefix__aF" x1="35.437%" x2="65.93%" y1="97.226%" y2="14.848%"><stop offset="0%" stop-color="#793D8F"></stop><stop offset="100%" stop-color="#E9515B"></stop></linearGradient></defs><g fill="none" fill-rule="evenodd"><path fill="#F1E8F1" fill-rule="nonzero" d="M333.642 92.967c-27.571 5.352-9.124-48.158-37.566-74.518-22.6-20.945-66.316-34.947-126.496 31.138-26.07 28.629-22.032-24.244-62.09-20.1C67.433 33.627-27.993 216.921 91.004 208.46c53.748-3.82 32.228 41.677 69.27 51.95 71.44 19.811 75.564-38.872 104.843-42.907 24.602-3.394 13.146 115.004 98.657-1.335 27.556-37.488 54.262-139.582-30.131-123.202" transform="matrix(-1 0 0 1 425.753 -1)"></path><g transform="matrix(-1 0 0 1 425.753 -1) translate(32.452 .273)"><mask id="prefix__b" fill="#fff"><use xlink:href="#prefix__a"></use></mask><path fill="#EBCEEB" fill-rule="nonzero" d="M1.76 146.903c-4.902 35.678 7.722 64.747 56.752 61.261 53.748-3.822 32.228 41.677 69.27 51.949 71.44 19.811 75.564-38.87 104.844-42.907 24.602-3.392 13.143 115.003 98.656-1.334 11.745-15.979 23.328-43.693 26.228-68.969H1.76z" mask="url(#prefix__b)"></path><mask id="prefix__d" fill="#fff"><use xlink:href="#prefix__c"></use></mask><path fill="#FFFAEF" fill-rule="nonzero" d="M352.98 122.137s-61.29 2.266-63.931 0c-2.641-2.266 10.566-.378 13.962-2.266 3.396-1.89 6.793-10.734 12.076-9.145 5.283 1.59 2.806 7.256 7.063 1.967 4.259-5.288 9.23-23.848 18.631-19.289 9.402 4.558 5.935 9.468 11.254 10.98 5.317 1.51 5.847-3.778 9.356 0 3.508 3.776 2.506 10.51 4.894 10.732 2.389.222 1.72-4.69 8.282-2.045 6.56 2.644 2.766 4.533 7.87 4.533 5.105 0 18.832 3.022 16.308 3.4-2.524.377-41.654.99-45.765 1.133" mask="url(#prefix__d)"></path><mask id="prefix__f" fill="#fff"><use xlink:href="#prefix__e"></use></mask><path fill="#FFFAEF" fill-rule="nonzero" d="M129.479 124.81s52.074-.337 52.69-.767c.615-.43-3.183.007-9.65-1.865-6.466-1.872-3.437-9.54-10.54-9.272-7.104.27-4.425 7.939-10.855 7.463-6.43-.476-3.796-5.988-8.85-5.091-5.056.896-1.251 7.325-5.468 6.9-4.215-.425-27.153 2.792-7.327 2.632" mask="url(#prefix__f)"></path><mask id="prefix__h" fill="#fff"><use xlink:href="#prefix__g"></use></mask><path fill="#FFFAEF" fill-rule="nonzero" d="M239.8 70.04s52.075-.337 52.69-.767c.616-.43-3.182.007-9.65-1.865-6.466-1.871-3.436-9.54-10.54-9.271-7.103.269-4.425 7.938-10.854 7.462-6.432-.476-3.796-5.988-8.852-5.091-5.054.896-1.25 7.325-5.466 6.9-4.216-.425-27.153 2.792-7.327 2.632" mask="url(#prefix__h)"></path><mask id="prefix__j" fill="#fff"><use xlink:href="#prefix__i"></use></mask><path fill="#FFFAEF" fill-rule="nonzero" d="M-14.957 117.431s52.075-.337 52.69-.767c.616-.43-3.182.007-9.649-1.865-6.467-1.871-3.437-9.54-10.54-9.271-7.104.269-4.426 7.938-10.855 7.462-6.431-.476-3.796-5.988-8.851-5.091-5.055.896-1.25 7.325-5.467 6.9-4.216-.425-27.153 2.792-7.328 2.632" mask="url(#prefix__j)"></path><mask id="prefix__l" fill="#fff"><use xlink:href="#prefix__k"></use></mask><path fill="#C0E2E8" fill-rule="nonzero" d="M223.012 94.885c0 15.8-12.796 28.61-28.58 28.61-15.785 0-28.582-12.81-28.582-28.61 0-15.8 12.797-28.609 28.581-28.609 15.785 0 28.58 12.81 28.58 28.61" mask="url(#prefix__l)"></path><mask id="prefix__n" fill="#fff"><use xlink:href="#prefix__m"></use></mask><path fill="#FFFAEF" fill-rule="nonzero" d="M254.622 52.043s-81.813 3.026-85.339 0c-3.526-3.025 14.103-.504 18.638-3.025 4.534-2.52 9.068-14.329 16.12-12.207 7.053 2.122 3.746 9.686 9.428 2.626 5.684-7.059 12.32-31.833 24.87-25.749 12.549 6.085 7.922 12.64 15.02 14.656 7.1 2.017 7.807-5.042 12.49 0 4.684 5.043 3.346 14.033 6.534 14.328 3.189.296 2.297-6.26 11.054-2.73s3.694 6.05 10.506 6.05c6.816 0 25.138 4.035 21.77 4.539-3.37.504-55.602 1.322-61.091 1.512" mask="url(#prefix__n)"></path><mask id="prefix__p" fill="#fff"><use xlink:href="#prefix__o"></use></mask><path fill="#FFFAEF" fill-rule="nonzero" d="M69.292 78.66s-46.975 1.738-49 0c-2.024-1.737 8.1-.29 10.702-1.737 2.603-1.447 5.207-8.226 9.256-7.008 4.048 1.218 2.151 5.561 5.413 1.508 3.263-4.054 7.074-18.278 14.28-14.784 7.205 3.493 4.549 7.256 8.624 8.414 4.076 1.158 4.481-2.895 7.171 0 2.69 2.895 1.922 8.057 3.752 8.227 1.83.169 1.319-3.594 6.347-1.568 5.027 2.027 2.12 3.474 6.033 3.474 3.912 0 14.433 2.316 12.498 2.607-1.934.289-31.924.758-35.076.868" mask="url(#prefix__p)"></path><mask id="prefix__r" fill="#fff"><use xlink:href="#prefix__q"></use></mask><path fill="#FFFAEF" fill-rule="nonzero" d="M204.592 150.82s8.526.002 6.618.58c-2.295.695-8.523-.27-6.618-.58" mask="url(#prefix__r)"></path><mask id="prefix__t" fill="#fff"><use xlink:href="#prefix__s"></use></mask><path fill="#FFFAEF" fill-rule="nonzero" d="M213.442 150.82s8.526.002 6.618.58c-2.295.695-8.522-.27-6.618-.58" mask="url(#prefix__t)"></path><mask id="prefix__v" fill="#fff"><use xlink:href="#prefix__u"></use></mask><path fill="#FFFAEF" fill-rule="nonzero" d="M220.696 149.582s8.526.002 6.618.579c-2.296.695-8.522-.27-6.618-.58" mask="url(#prefix__v)"></path><mask id="prefix__x" fill="#fff"><use xlink:href="#prefix__w"></use></mask><path fill="#FFFAEF" fill-rule="nonzero" d="M200.101 152.985s8.526.003 6.618.58c-2.295.695-8.523-.27-6.618-.58" mask="url(#prefix__x)"></path><mask id="prefix__z" fill="#fff"><use xlink:href="#prefix__y"></use></mask><path fill="#FFFAEF" fill-rule="nonzero" d="M192.21 152.16s8.526.002 6.618.58c-2.295.695-8.523-.27-6.618-.58" mask="url(#prefix__z)"></path><mask id="prefix__B" fill="#fff"><use xlink:href="#prefix__A"></use></mask><path fill="#FFFAEF" fill-rule="nonzero" d="M181.817 154.223s8.526.002 6.618.58c-2.295.695-8.522-.27-6.618-.58" mask="url(#prefix__B)"></path><g><mask id="prefix__D" fill="#fff"><use xlink:href="#prefix__C"></use></mask><path fill="#FFFAEF" fill-rule="nonzero" d="M175.173 151.25s8.526-.041 6.62.546c-2.291.706-8.523-.227-6.62-.547" mask="url(#prefix__D)"></path></g><g><mask id="prefix__F" fill="#fff"><use xlink:href="#prefix__E"></use></mask><path fill="#FFFAEF" fill-rule="nonzero" d="M162.371 151.34s8.526.003 6.618.58c-2.295.695-8.522-.27-6.618-.58" mask="url(#prefix__F)"></path></g><g><mask id="prefix__H" fill="#fff"><use xlink:href="#prefix__G"></use></mask><path fill="#FFFAEF" fill-rule="nonzero" d="M155.606 150.928s5.8.002 4.501.579c-1.56.695-5.797-.27-4.501-.58" mask="url(#prefix__H)"></path></g><g><mask id="prefix__J" fill="#fff"><use xlink:href="#prefix__I"></use></mask><path fill="#FFFAEF" fill-rule="nonzero" d="M169.64 149.582s5.799.002 4.5.579c-1.56.695-5.797-.27-4.5-.58" mask="url(#prefix__J)"></path></g><g><mask id="prefix__L" fill="#fff"><use xlink:href="#prefix__K"></use></mask><path fill="#FFFAEF" fill-rule="nonzero" d="M202.615 148.384s5.8.003 4.502.58c-1.561.695-5.797-.27-4.502-.58" mask="url(#prefix__L)"></path></g><g><mask id="prefix__N" fill="#fff"><use xlink:href="#prefix__M"></use></mask><path fill="#FFFAEF" fill-rule="nonzero" d="M207.55 155.36s5.8.002 4.5.58c-1.56.695-5.796-.27-4.5-.58" mask="url(#prefix__N)"></path></g><g><mask id="prefix__P" fill="#fff"><use xlink:href="#prefix__O"></use></mask><path fill="#FFFAEF" fill-rule="nonzero" d="M195.723 149.169s5.8.002 4.5.579c-1.56.695-5.797-.27-4.5-.58" mask="url(#prefix__P)"></path></g><g><mask id="prefix__R" fill="#fff"><use xlink:href="#prefix__Q"></use></mask><path fill="#FFFAEF" fill-rule="nonzero" d="M187.003 148.384s5.8.003 4.501.58c-1.56.695-5.797-.27-4.5-.58" mask="url(#prefix__R)"></path></g><g><mask id="prefix__T" fill="#fff"><use xlink:href="#prefix__S"></use></mask><path fill="#FFFAEF" fill-rule="nonzero" d="M225.595 152.573s5.8.002 4.501.579c-1.56.695-5.797-.27-4.5-.58" mask="url(#prefix__T)"></path></g><g><mask id="prefix__V" fill="#fff"><use xlink:href="#prefix__U"></use></mask><path fill="#FFFAEF" fill-rule="nonzero" d="M211.948 149.169s5.8.002 4.502.579c-1.561.695-5.798-.27-4.502-.58" mask="url(#prefix__V)"></path></g><g><mask id="prefix__X" fill="#fff"><use xlink:href="#prefix__W"></use></mask><path fill="#FFFAEF" fill-rule="nonzero" d="M176.207 148.93s5.788-.36 4.529.298c-1.515.79-5.804.092-4.53-.298" mask="url(#prefix__X)"></path></g><g><mask id="prefix__Z" fill="#fff"><use xlink:href="#prefix__Y"></use></mask><path fill="#FFFAEF" fill-rule="nonzero" d="M159.79 149.169s5.8.002 4.501.579c-1.56.695-5.797-.27-4.5-.58" mask="url(#prefix__Z)"></path></g><g><mask id="prefix__ab" fill="#fff"><use xlink:href="#prefix__aa"></use></mask><path fill="#FFFAEF" fill-rule="nonzero" d="M169.472 154.223s8.525.002 6.617.58c-2.295.695-8.522-.27-6.617-.58" mask="url(#prefix__ab)"></path></g><g><mask id="prefix__ad" fill="#fff"><use xlink:href="#prefix__ac"></use></mask><path fill="#FFFAEF" fill-rule="nonzero" d="M192.848 155.773s8.526.002 6.617.579c-2.295.695-8.521-.27-6.617-.58" mask="url(#prefix__ad)"></path></g><g><mask id="prefix__af" fill="#fff"><use xlink:href="#prefix__ae"></use></mask><path fill="#FFFAEF" fill-rule="nonzero" d="M214.53 154.636s8.525.002 6.618.579c-2.296.695-8.523-.27-6.618-.58" mask="url(#prefix__af)"></path></g><g><mask id="prefix__ah" fill="#fff"><use xlink:href="#prefix__ag"></use></mask><path fill="#FFFAEF" fill-rule="nonzero" d="M184.482 150.645s8.504-.616 6.641.098c-2.238.86-8.519.35-6.641-.098" mask="url(#prefix__ah)"></path></g><g><mask id="prefix__aj" fill="#fff"><use xlink:href="#prefix__ai"></use></mask><path fill="#770D35" fill-rule="nonzero" d="M348.188 233.508c-1.787-2.52-13.552-45.995-24.317-68.25l3.827-1.264s17.492 32.7 23.465 59.857l-2.975 9.657z" mask="url(#prefix__aj)"></path></g><g><mask id="prefix__al" fill="#fff"><use xlink:href="#prefix__ak"></use></mask><ellipse cx="195.159" cy="95.031" fill="#EBCEEB" fill-rule="nonzero" mask="url(#prefix__al)" rx="29.341" ry="29.309"></ellipse><g><mask id="prefix__an" fill="#fff"><use xlink:href="#prefix__am"></use></mask><path fill="#770D35" fill-rule="nonzero" d="M353.108 220.713c-.408-8.18-.54-62.508-16.455-91.015l4.014.371s18.33 26.013 23.184 84.027l-10.743 6.617z" mask="url(#prefix__an)"></path></g></g><g fill="#D683A3" fill-rule="nonzero"><path d="M14.29.685C14.4-.318 5.623.83 2.28 5.867c-3.345 5.035-.206 29.65-.206 29.65s4.784-11.46 4.26-12.704c-.524-1.243-.698-2.702-.698-2.702s2.262.93 2.315-.13C8.006 18.92 13.998 3.314 14.29.684" transform="translate(311.188 163.418)"></path></g><g fill="#D683A3" fill-rule="nonzero"><path d="M28.069 4.127c1.364-.143-17.012-5.954-22.505-2.634C.072 4.813.237 25.129.627 24.474c.391-.654 2.536-6.405 5.553-10.614 3.016-4.21 5.294-7.923 5.294-7.923S26.706 4.27 28.07 4.127" transform="translate(299.63 159.866)"></path></g><g fill="#770D35" fill-rule="nonzero"><path d="M4.076 17.6C2.224 17.371-1.826 1.285 2.624.281c4.448-1.005 19.417 2.272 17.95 2.557-1.465.285-13.87 2.85-14.199 4.222-.328 1.372-.059 10.815-2.299 10.538" transform="translate(320.968 148.32)"></path></g><g fill="#770D35" fill-rule="nonzero"><path d="M.235 4.505S3.05-1.058 10.387 1.348c7.338 2.404 13.298 11.664 13.708 19.886l-8.502-8.483 1.642-1.855s-1.73.853-2.92 1.046c-1.589.26-8.583-8.042-14.08-7.437" transform="translate(323.636 160.754)"></path></g><g fill="#770D35" fill-rule="nonzero"><path d="M.613 8.264S6.567-.092 12.266.697c5.698.79 14.035 7.165 16.423 11.249 0 0-11.368-4.331-13.692-4.847C13.595 6.79.613 8.264.613 8.264" transform="translate(323.636 154.537)"></path></g><g fill="#770D35" fill-rule="nonzero"><path d="M25.623 2.278c.502-.875-8-3.335-13.08-.058C7.467 5.498.513 29.316.513 29.316s8.961-8.589 8.979-9.94c.015-1.349.44-2.756.44-2.756s1.7 1.759 2.173.807c.474-.95 12.2-12.854 13.518-15.149" transform="translate(312.966 127.004)"></path></g><g fill="#770D35" fill-rule="nonzero"><path d="M33.926 11.947C35.235 12.362 20.71-.318 14.35.526 7.99 1.37.026 20.058.646 19.616c.619-.445 4.882-4.858 9.328-7.509 4.448-2.65 8.02-5.142 8.02-5.142s14.627 4.568 15.932 4.982" transform="translate(306.743 118.123)"></path></g><g fill="#770D35" fill-rule="nonzero"><path d="M.493 17.091C-1.112 16.141 1.6-.224 6.08.636c4.477.861 16.89 9.855 15.431 9.53-1.457-.327-13.851-2.94-14.7-1.814-.848 1.126-4.374 9.889-6.318 8.74" transform="translate(336.972 113.682)"></path></g><g fill="#770D35" fill-rule="nonzero"><path d="M.166 6.798S6.8-1.028 12.413.238c5.611 1.265 13.384 8.32 15.422 12.589 0 0-10.966-5.27-13.24-5.98-1.37-.43-14.43-.049-14.43-.049" transform="translate(336.972 123.452)"></path></g><g fill="#770D35" fill-rule="nonzero"><path d="M.005 1.05S10.097-.769 13.624 3.78c3.528 4.548 5.045 14.94 3.906 19.532 0 0-5.115-11.048-6.42-13.042C10.325 9.068.005 1.05.005 1.05" transform="translate(337.861 128.78)"></path></g></g><g><path fill="#F1E8F1" fill-rule="nonzero" d="M287.478 303.446c15.198-4.692 137.158-2.333 137.368 3.208.207 5.54-160.344 3.885-137.368-3.208" transform="matrix(-1 0 0 1 425.753 -1) translate(.445 86.422)"></path><path fill="#F1E8F1" fill-rule="nonzero" d="M17.629 303.446c34.703-4.692 313.184-2.333 313.662 3.208.476 5.54-366.125 3.885-313.662-3.208" transform="matrix(-1 0 0 1 425.753 -1) translate(.445 86.422)"></path><path fill="#383A45" fill-rule="nonzero" d="M401.43 209.616c-.86 0-1.559-.696-1.559-1.555v-37.328c0-3.397-4.663-6.267-10.185-6.267-5.52 0-10.185 2.87-10.185 6.267v37.328c0 .859-.698 1.555-1.559 1.555s-1.558-.696-1.558-1.555v-37.328c0-5.17 5.967-9.377 13.302-9.377s13.303 4.206 13.303 9.377v37.328c0 .859-.698 1.555-1.559 1.555" transform="matrix(-1 0 0 1 425.753 -1) translate(.445 86.422)"></path><path fill="#383A45" fill-rule="nonzero" d="M395.277 167.723h-11.181c-1.87 0-3.398-1.526-3.398-3.391 0-1.864 1.529-3.391 3.398-3.391h11.18c1.87 0 3.4 1.527 3.4 3.39 0 1.866-1.53 3.392-3.4 3.392M375.756 297.515c0 3.831-3.113 6.937-6.954 6.937-3.84 0-6.954-3.106-6.954-6.937 0-3.832 3.114-6.937 6.954-6.937s6.954 3.105 6.954 6.937M417.523 297.515c0 3.831-3.113 6.937-6.952 6.937-3.841 0-6.954-3.106-6.954-6.937 0-3.832 3.113-6.937 6.954-6.937 3.839 0 6.952 3.105 6.952 6.937" transform="matrix(-1 0 0 1 425.753 -1) translate(.445 86.422)"></path><path fill="url(#prefix__ao)" fill-rule="nonzero" d="M409.117 291.995h-38.86c-6.859 0-12.47-5.598-12.47-12.44v-60.561c0-6.842 5.611-12.44 12.47-12.44h38.86c6.858 0 12.47 5.598 12.47 12.44v60.56c0 6.843-5.612 12.44-12.47 12.44" transform="matrix(-1 0 0 1 425.753 -1) translate(.445 86.422)"></path><g transform="matrix(-1 0 0 1 425.753 -1) translate(.445 86.422) translate(387.586 216.662)"><mask id="prefix__aq" fill="#fff"><use xlink:href="#prefix__ap"></use></mask><path fill="#FFFAEF" fill-rule="nonzero" d="M2.1 64.931c-1.156 0-2.103-.943-2.103-2.097V2.389C-.003 1.237.944.292 2.1.292c1.157 0 2.102.945 2.102 2.097v60.445c0 1.154-.945 2.097-2.102 2.097" mask="url(#prefix__aq)"></path></g><g transform="matrix(-1 0 0 1 425.753 -1) translate(.445 86.422) translate(375.117 216.662)"><mask id="prefix__as" fill="#fff"><use xlink:href="#prefix__ar"></use></mask><path fill="#FFFAEF" fill-rule="nonzero" d="M2.209 64.931c-1.157 0-2.104-.943-2.104-2.097V2.389c0-1.152.947-2.097 2.104-2.097 1.156 0 2.103.945 2.103 2.097v60.445c0 1.154-.947 2.097-2.103 2.097" mask="url(#prefix__as)"></path><g transform="translate(24.789)"><mask id="prefix__au" fill="#fff"><use xlink:href="#prefix__at"></use></mask><path fill="#FFFAEF" fill-rule="nonzero" d="M2.141 64.931c-1.156 0-2.103-.943-2.103-2.097V2.389C.038 1.237.985.292 2.141.292c1.156 0 2.103.945 2.103 2.097v60.445c0 1.154-.947 2.097-2.103 2.097" mask="url(#prefix__au)"></path></g></g><path fill="#383A45" fill-rule="nonzero" d="M43.643 209.616c-.86 0-1.558-.696-1.558-1.555v-37.328c0-3.397-4.665-6.267-10.185-6.267-5.522 0-10.186 2.87-10.186 6.267v37.328c0 .859-.698 1.555-1.558 1.555-.862 0-1.56-.696-1.56-1.555v-37.328c0-5.17 5.968-9.377 13.304-9.377 7.335 0 13.302 4.206 13.302 9.377v37.328c0 .859-.697 1.555-1.559 1.555" transform="matrix(-1 0 0 1 425.753 -1) translate(.445 86.422)"></path><path fill="#383A45" fill-rule="nonzero" d="M37.49 167.723H26.31c-1.87 0-3.4-1.526-3.4-3.391 0-1.864 1.53-3.391 3.4-3.391h11.18c1.869 0 3.398 1.527 3.398 3.39 0 1.866-1.53 3.392-3.399 3.392M17.969 297.515c0 3.831-3.113 6.937-6.954 6.937-3.84 0-6.953-3.106-6.953-6.937 0-3.832 3.114-6.937 6.953-6.937 3.84 0 6.954 3.105 6.954 6.937M59.736 297.515c0 3.831-3.113 6.937-6.953 6.937-3.84 0-6.953-3.106-6.953-6.937 0-3.832 3.113-6.937 6.953-6.937 3.84 0 6.953 3.105 6.953 6.937" transform="matrix(-1 0 0 1 425.753 -1) translate(.445 86.422)"></path><g transform="matrix(-1 0 0 1 425.753 -1) translate(.445 86.422) translate(0 206.296)"><mask id="prefix__aw" fill="#fff"><use xlink:href="#prefix__av"></use></mask><path fill="#7E3E8F" fill-rule="nonzero" d="M51.33 85.699H12.47C5.61 85.699 0 80.1 0 73.259v-60.56C0 5.855 5.61.258 12.47.258h38.86c6.858 0 12.469 5.597 12.469 12.44v60.56c0 6.842-5.611 12.44-12.47 12.44" mask="url(#prefix__aw)"></path></g><g transform="matrix(-1 0 0 1 425.753 -1) translate(.445 86.422) translate(29.095 216.662)"><mask id="prefix__ay" fill="#fff"><use xlink:href="#prefix__ax"></use></mask><path fill="#FFFAEF" fill-rule="nonzero" d="M2.804 64.931c-1.156 0-2.103-.943-2.103-2.097V2.389c0-1.152.947-2.097 2.103-2.097 1.157 0 2.103.945 2.103 2.097v60.445c0 1.154-.946 2.097-2.103 2.097" mask="url(#prefix__ay)"></path></g><g transform="matrix(-1 0 0 1 425.753 -1) translate(.445 86.422) translate(16.626 216.662)"><mask id="prefix__aA" fill="#fff"><use xlink:href="#prefix__az"></use></mask><path fill="#FFFAEF" fill-rule="nonzero" d="M2.913 64.931c-1.156 0-2.103-.943-2.103-2.097V2.389c0-1.152.947-2.097 2.103-2.097 1.157 0 2.103.945 2.103 2.097v60.445c0 1.154-.946 2.097-2.103 2.097" mask="url(#prefix__aA)"></path><g transform="translate(24.939)"><mask id="prefix__aC" fill="#fff"><use xlink:href="#prefix__aB"></use></mask><path fill="#FFFAEF" fill-rule="nonzero" d="M2.696 64.931c-1.157 0-2.104-.943-2.104-2.097V2.389c0-1.152.947-2.097 2.104-2.097 1.156 0 2.103.945 2.103 2.097v60.445c0 1.154-.947 2.097-2.103 2.097" mask="url(#prefix__aC)"></path></g></g><path fill="#FE8D23" fill-rule="nonzero" d="M230.836 226.067s5.773 15.597 8.104 31.119c1.366 9.095-4.103 37.83-4.103 37.83l-7.521-1.184s-.537-28.745-1.198-32.32c-3.412-18.41-18.332-38.086-18.332-38.086s-.43 22.642-4.257 36.118c-1.16 4.083-12.954 30.1-12.954 30.1l-7.525-1.861s8.136-27.242 8.342-32.49c.205-5.248.735-31.1.735-31.1l35.092-4.838 3.617 6.712zM263.115 190.204s1.277-6.574 5.03-9.937c3.753-3.363 11.98-3.755 13.436-2.255 1.456 1.5-8.284 4.709-10.166 7.732-1.882 3.024-2.445 4.543-4.098 5.8-1.653 1.257-4.202-1.34-4.202-1.34" transform="matrix(-1 0 0 1 425.753 -1) translate(.445 86.422)"></path><path fill="#FE8D23" fill-rule="nonzero" d="M266.046 182.81s-9.214 9.992-16.257 10.233c-7.04.242-4.161-36.778-25.836-41.098l-1.246 14.077s5.627 2.011 9.872 15.662c5.731 18.432 11.152 25.035 21.107 21.259 12.47-4.73 23.077-25.102 12.36-20.132" transform="matrix(-1 0 0 1 425.753 -1) translate(.445 86.422)"></path><path fill="#4C041F" fill-rule="nonzero" d="M227.322 294.751c.103.24-.678 9.698.868 10.33 1.545.63 16.77.376 17.037-.185.267-.56-7.497-2.68-9.054-4.537-1.131-1.348-1.336-5.344-1.336-5.344s-7.767-.859-7.515-.264M183.05 287.784c.528.082-4.053 8.885-2.847 10.04 1.207 1.15 15.465 6.481 15.92 6.056.455-.424-5.991-5.235-6.758-7.53-.556-1.67 1.21-6.705 1.21-6.705s-8.166-1.963-7.526-1.861" transform="matrix(-1 0 0 1 425.753 -1) translate(.445 86.422)"></path><path fill="#D683A3" fill-rule="nonzero" d="M217.465 245.66c-.937-4.663-6.543-15.674-6.543-15.674s1.076 8.17-.213 16.323l-22.42-.665c-1.487-12.41-1.234-29.148-1.234-29.148l42.906-7.039s7.262 23.797 8.561 31.807l-21.057 4.397zM221.02 144.714c-.252-.001-42.695-.93-45.215 3.595-2.52 4.525-3.24 58.475 0 59.867 3.24 1.392 48.876 0 48.876 0s.888-63.446-3.66-63.462" transform="matrix(-1 0 0 1 425.753 -1) translate(.445 86.422)"></path><path fill="#770D35" fill-rule="nonzero" d="M232.579 180.288c.394.22 10.196-3.586 11.235-6.437 1.04-2.85-7.07-21.753-17.85-22.951 0 0-3.258 8.49-3.258 11.804 0 3.317 7.468 16.246 9.873 17.584" transform="matrix(-1 0 0 1 425.753 -1) translate(.445 86.422)"></path><path fill="#770D35" fill-rule="nonzero" d="M187.07 217.354c4.134 1.191 45.509-.767 45.509-.767s-3.375-61.848-4.296-64.642c-.92-2.794-39.598-2.889-41.44-.198l.227 65.607z" transform="matrix(-1 0 0 1 425.753 -1) translate(.445 86.422)"></path><path fill="#D683A3" fill-rule="nonzero" d="M192.02 149.418s11.15 51.576-7.9 53.526v5.808s17.176-1.205 17.176-19.772c0-15.757-1.375-39.29-1.375-39.29l-7.9-.272z" transform="matrix(-1 0 0 1 425.753 -1) translate(.445 86.422)"></path><path fill="#FE8D23" fill-rule="nonzero" d="M186.903 151.945s-43.205 32.849-25.928 47.213c17.277 14.364 28.511-16.924 36.99-14.903 8.856 2.11 12.502-.421 7.678-3.56-4.997-3.251-7.713-4.885-13.472-1.054-5.76 3.83-21.975 18.936-24.437 11.871-2.405-6.896 20.152-24.701 20.152-24.701l-.983-14.866z" transform="matrix(-1 0 0 1 425.753 -1) translate(.445 86.422)"></path><path fill="#770D35" fill-rule="nonzero" d="M166.55 167.905s1.014 2.075 12.995 12.63c0 0 11.71-9.237 12.421-9.71.713-.475-1.131-20.182-1.74-20.152-6.105.293-14.488 5.736-23.676 17.232" transform="matrix(-1 0 0 1 425.753 -1) translate(.445 86.422)"></path><path fill="#7E3E8F" fill-rule="nonzero" d="M222.706 106.053s-6.59-10.319-16.835-6.382c-8.414 3.232-7.32 10.019-11.543 10.944-5.325 1.166-5.256 8.568-2.177 12.66 3.837 5.1-.21 4.428 1.633 8.648s8.03 6.142 9.223 5.31c1.193-.831 25.076-25.247 19.699-31.18" transform="matrix(-1 0 0 1 425.753 -1) translate(.445 86.422)"></path><path fill="#FE8D23" fill-rule="nonzero" d="M204.465 130.685s-2.448-7.355-5.63-7.807c-3.181-.452-2.61 7.688 1.714 10.292 4.325 2.605 3.916-2.485 3.916-2.485" transform="matrix(-1 0 0 1 425.753 -1) translate(.445 86.422)"></path><path fill="#FE8D23" fill-rule="nonzero" d="M198.79 110.205s-4.403 31.024 15.597 31.022c17.38-.002 12.676-32.519 2.288-35.016-10.386-2.499-17.574.746-17.885 3.994" transform="matrix(-1 0 0 1 425.753 -1) translate(.445 86.422)"></path><path fill="#FE8D23" fill-rule="nonzero" d="M215.185 126.128s-.844 21.85 0 23.574c1.169 2.39-2.887 4.946-6.708 4.814-5.583-.194-5.583-4.826-5.583-4.826v-28.603s9.23.828 12.29 5.04" transform="matrix(-1 0 0 1 425.753 -1) translate(.445 86.422)"></path><path fill="#7E3E8F" fill-rule="nonzero" d="M200.882 106.257c1.592-.965 17.55-6.496 22.559.667 2.63 3.765-1.633 11.77-14.3 6.497-10.022-4.172-4.731 15.822-6.248 14.995-1.515-.825-2.978-5.26-4.216-3.315-1.272 1.994-.42 6.891 4.216 9.098 0 0-.104 3.108-.537 2.432-.432-.677-18.064-20.313-1.474-30.374" transform="matrix(-1 0 0 1 425.753 -1) translate(.445 86.422)"></path><path fill="#BB545B" fill-rule="nonzero" d="M214.81 143.205c.18-.011.234-1.907.005-1.985-.226-.08-7.336-.557-9.36-3.416-2.025-2.859-.637 5.984 9.355 5.401" transform="matrix(-1 0 0 1 425.753 -1) translate(.445 86.422)"></path><path fill="#770D35" fill-rule="nonzero" d="M186.385 276.229l8.998 2.686s-5.303 12.206-5.523 13.08l-7.519-1.983s2.294-9.926 4.044-13.783M226.928 281.626h10.162s-1.287 7.972-2.17 14.357l-7.605.19s-.387-6.189-.387-14.547" transform="matrix(-1 0 0 1 425.753 -1) translate(.445 86.422)"></path><path fill="#7E3E8F" fill-rule="nonzero" d="M352.813 60.169c-14.109-2.784-5.448-3.104-8.474-12.28-2.737-8.296-13.98-2.584-11.59-13.186 3.608-16.003-21.901-31.178-34.073-17.352-14.709 16.705 23.09 14.011 21.776 21.129-2.488 13.483-11.574 27.047-5.14 29.955 6.435 2.908 9.867.173 9.276 5.443-.591 5.27-5.594 16.466 4.995 16.137 10.589-.33 7.153 7.566 16.695 8.176 6.599.421 2.955-7.58 12.991-6.754 7.347.603 10.105-13.622 1.1-14.428-8.955-.8.516-15.248-7.556-16.84" transform="matrix(-1 0 0 1 425.753 -1) translate(.445 86.422)"></path><path fill="#EF9A9B" fill-rule="nonzero" d="M341.14 94.595s5.67 20.114 9.566 28.607c9.642 21.019 34.805 32.237 34.805 32.237l-2.72 5.935s-21.981-9.512-36.596-27.757c-6.852-8.551-21.311-34.97-21.311-34.97s13.739-10.515 16.256-4.052" transform="matrix(-1 0 0 1 425.753 -1) translate(.445 86.422)"></path><path fill="#FE8D23" fill-rule="nonzero" d="M277.895 168.069s3.118 5.932 2.291 10.896c-.827 4.965-7.007 10.395-9.083 10.13-2.077-.264 3.523-8.838 3.101-12.372-.423-3.535-2.153-6.371-1.65-8.383.506-2.012 5.341-.271 5.341-.271M345.866 275.216l-.96 15.362h-9.743s.072-11.677-.878-17c-.95-5.322 11.581 1.638 11.581 1.638" transform="matrix(-1 0 0 1 425.753 -1) translate(.445 86.422)"></path><path fill="#4C041F" fill-rule="nonzero" d="M335.158 288.569c.67-.149-.648 12.49 1.332 13.297 1.98.809 21.483.482 21.825-.235.342-.72-9.604-3.436-11.598-5.813-1.449-1.726-1.71-6.844-1.71-6.844s-10.658-.225-9.85-.405" transform="matrix(-1 0 0 1 425.753 -1) translate(.445 86.422)"></path><path fill="#FE8D23" fill-rule="nonzero" d="M314.545 275.216l-.962 15.362h-9.743s.073-11.677-.877-17c-.95-5.322 11.582 1.638 11.582 1.638" transform="matrix(-1 0 0 1 425.753 -1) translate(.445 86.422)"></path><path fill="#D683A3" fill-rule="nonzero" d="M381.981 152.528s1.81.521-3.453 9.272c-2.338 3.887-35.176-18.619-40.617-40.584-2.167-8.746.477-39.103.477-39.103s14.971 38.766 18.677 46.154c6.094 12.152 24.916 24.261 24.916 24.261M283.033 249.274h55.65s6.655-87.72-6.084-97.862c-12.74-10.143-39.223-4.833-39.223-4.833l-10.343 102.695z" transform="matrix(-1 0 0 1 425.753 -1) translate(.445 86.422)"></path><path fill="#D683A3" fill-rule="nonzero" d="M325.519 68.546s-2.103 21.83 1.35 31.653c3.451 9.823.032 140.294 1.073 144.242 1.041 3.949 17.102 3.794 18.2 4.833 1.096 1.04-4.753-132.506-4.663-137.75.09-5.243-2.382-27.5-3.408-30.768-3.538-11.287-12.552-12.21-12.552-12.21" transform="matrix(-1 0 0 1 425.753 -1) translate(.445 86.422)"></path><path fill="#7E3E8F" fill-rule="nonzero" d="M293.376 146.58c.833-3.218-8.86 22.866-5.924 43.353 2.937 20.487 13.43 71.582 16.077 88.981h10.783s2.12-32.503 2.963-50.107c1.385-28.974-1.097-51.056-.62-58.68h4.44s9.616 33.937 12.887 46.828c4.7 18.512-.693 61.96-.693 61.96h12.99s12.317-55.641 7.31-76.117c-6.113-25.008-17.902-55.064-17.902-55.064l-42.31-1.155z" transform="matrix(-1 0 0 1 425.753 -1) translate(.445 86.422)"></path><path fill="#FFFAEF" fill-rule="nonzero" d="M301.418 68.546c3.592-2.07 18.298-2.639 24.101 0 5.803 2.638 10.67 80.488 10.67 80.488s-47.162 1.626-47.162-1.3c0-2.925-1.698-68.613 1.846-73.489 3.545-4.875 10.545-5.7 10.545-5.7" transform="matrix(-1 0 0 1 425.753 -1) translate(.445 86.422)"></path><path fill="#FFFAEF" fill-rule="nonzero" d="M325.334 111.525s15.048-4.742 10.352-15.627c-5.783-13.404-5.332-27.67-12.986-27.46-7.655.209-10.995 29.552 2.634 43.087" transform="matrix(-1 0 0 1 425.753 -1) translate(.445 86.422)"></path><path fill="#7E3E8F" fill-rule="nonzero" d="M309.632 66.774s-15.658-1.966-21.011-16.415c-5.106-13.777 2.804-27.892 9.916-29.357 7.11-1.465 24.33 41.165 11.095 45.772" transform="matrix(-1 0 0 1 425.753 -1) translate(.445 86.422)"></path><path fill="#FE8D23" fill-rule="nonzero" d="M323.146 22.75s4.87 34.318-17.253 34.315c-19.225-.002-14.023-35.971-2.531-38.734 11.49-2.764 19.44.826 19.784 4.418" transform="matrix(-1 0 0 1 425.753 -1) translate(.445 86.422)"></path><path fill="#FE8D23" fill-rule="nonzero" d="M305.01 40.363s.934 24.17 0 26.078c-1.293 2.644 2.602 18.87 11.847 14.64 5.618-2.571 1.75-14.654 1.75-14.654v-31.64s-10.21.915-13.597 5.576" transform="matrix(-1 0 0 1 425.753 -1) translate(.445 86.422)"></path><path fill="#BB545B" fill-rule="nonzero" d="M305.424 59.253c-.198-.012-.257-2.109-.006-2.197.252-.087 8.116-.615 10.355-3.777 2.24-3.162.704 6.62-10.349 5.974" transform="matrix(-1 0 0 1 425.753 -1) translate(.445 86.422)"></path><path fill="#4C041F" fill-rule="nonzero" d="M303.836 288.569c.67-.149-.647 12.49 1.333 13.297 1.98.809 21.483.482 21.825-.235.342-.72-9.605-3.436-11.599-5.813-1.45-1.726-1.711-6.844-1.711-6.844s-10.657-.225-9.848-.405" transform="matrix(-1 0 0 1 425.753 -1) translate(.445 86.422)"></path><path fill="#7E3E8F" fill-rule="nonzero" d="M303.84 15.242s-10.461 2.424-5.303 9.106c5.159 6.683 18.79 4.107 18.118 8.864-.67 4.756 1.078 10.69 6.666 12.957 5.587 2.267 7.365-1.641 8.559-5.01 3.335-9.42-4.438-35.133-28.04-25.917" transform="matrix(-1 0 0 1 425.753 -1) translate(.445 86.422)"></path><path fill="#D683A3" fill-rule="nonzero" d="M332.13 107.904s-8.62 2.27-12.789 2.27c-4.168 0 5.79 3.133 10.336 1.351 4.547-1.782 2.453-3.621 2.453-3.621M312.216 109.648s-8.915.025-12.948-1.026c-4.034-1.05 4.809 4.49 9.658 3.911 4.85-.578 3.29-2.885 3.29-2.885" opacity=".2" transform="matrix(-1 0 0 1 425.753 -1) translate(.445 86.422)"></path><path fill="#D683A3" fill-rule="nonzero" d="M303.194 67.86s2.566 22.518-.887 32.34c-3.453 9.823-8.804 119.497-4.065 147.51.682 4.026-14.113.525-15.209 1.564-1.097 1.039 4.752-132.506 4.662-137.75-.09-5.242-.241-37.273 2.126-39.753 2.367-2.481 13.373-3.912 13.373-3.912" transform="matrix(-1 0 0 1 425.753 -1) translate(.445 86.422)"></path><path fill="#FE8D23" fill-rule="nonzero" d="M316.869 45.405s2.707-8.136 6.226-8.636c3.52-.5 2.888 8.504-1.894 11.385-4.784 2.88-4.332-2.75-4.332-2.75" transform="matrix(-1 0 0 1 425.753 -1) translate(.445 86.422)"></path><path fill="#D683A3" fill-rule="nonzero" d="M291.268 102.214s-10.296 8.318-13.876 28.589c-2.387 13.512 1.84 37.132 2.59 39.183 1.147 3.131-9.493 7.03-10.88 4.8-1.385-2.23-10.595-30.999-7.677-49.51 5.007-31.773 25.253-55.436 33.767-55.416 7.036.015 1.448 23.95-3.924 32.354" transform="matrix(-1 0 0 1 425.753 -1) translate(.445 86.422)"></path><path fill="#FE8D23" fill-rule="nonzero" d="M385.51 155.162s10.377-1.096 11.018 9.361c.6 9.812-5.102-3.355-13.737-3.426-2.943-.026-4.287-3.99 2.72-5.935M36.58 157.852s5.867-4.516 8.947-9.327c0 0 3.616 3.314 3.75 5.598.134 2.283-6.83 9.828-8.973 9.828-.998 0-3.724-6.099-3.724-6.099" transform="matrix(-1 0 0 1 425.753 -1) translate(.445 86.422)"></path><path fill="#FE8D23" fill-rule="nonzero" d="M36.58 157.852s-10.377-1.096-11.017 9.361c-.601 9.812 6.106-3.19 14.741-3.262 2.944-.024 3.283-4.154-3.724-6.099" transform="matrix(-1 0 0 1 425.753 -1) translate(.445 86.422)"></path><path fill="#7E3E8F" fill-rule="nonzero" d="M120.617 5.243s6.764 5.16 8.538 13.121c1.773 7.962-3.235 11.773-4.047 11.97-.813.194-10.073-23.764-4.491-25.091" transform="matrix(-1 0 0 1 425.753 -1) translate(.445 86.422)"></path><path fill="#FFFAEF" fill-rule="nonzero" d="M164.075 58.013h-8.885c-.649 0-1.179.53-1.179 1.176v19.272c0 .647.53 1.175 1.179 1.175h8.885c.649 0 1.18-.528 1.18-1.175V59.189c0-.647-.531-1.176-1.18-1.176" transform="matrix(-1 0 0 1 425.753 -1) translate(.445 86.422)"></path><path fill="#42394A" fill-rule="nonzero" d="M157.217 60.11c0 .556-.45 1.006-1.007 1.006-.557 0-1.008-.45-1.008-1.005 0-.556.45-1.006 1.008-1.006.557 0 1.007.45 1.007 1.006" transform="matrix(-1 0 0 1 425.753 -1) translate(.445 86.422)"></path><path fill="#4C041F" fill-rule="nonzero" d="M127.184 288.569c.67-.149-.647 12.49 1.332 13.297 1.98.809 21.484.482 21.826-.235.342-.72-9.605-3.436-11.599-5.813-1.448-1.726-1.711-6.844-1.711-6.844s-10.657-.225-9.848-.405M78.338 275.799c.602.325-8.786 12.314-7.826 14.22.959 1.908 15.943 11.124 16.673 10.809.73-.317-4.975-8.887-4.912-11.987.046-2.25 3.22-6.28 3.22-6.28s-7.883-7.16-7.155-6.762" transform="matrix(-1 0 0 1 425.753 -1) translate(.445 86.422)"></path><path fill="#D683A3" fill-rule="nonzero" d="M140.227 160.139s13.74 49.838 12.792 60.728c-.948 10.889-8.701 71.127-8.701 71.127h-20.959s7.763-69.594 7.386-75.039c-.378-5.444-9.918-35.672-11.697-35.532l-1.78.139s-1.994 41.509-3.851 51.247c-1.858 9.736-26.167 55.5-26.167 55.5s-16.612-6.171-16.739-9.394c-.124-3.222 20.035-42.384 21.663-50.109 1.626-7.723-4.92-64.084-4.92-64.084l52.973-4.583z" transform="matrix(-1 0 0 1 425.753 -1) translate(.445 86.422)"></path><path fill="#FE8D23" fill-rule="nonzero" d="M169.86 77.336s-3.945-12.489-15.363-10.562c-7.928 1.338 8.356 8.093 10.21 12.848 1.153 2.957 10.95 37.26-3.173 34.652-14.124-2.607-23.545-44.146-27.199-47.5-3.653-3.354-15.755 7.332-15.755 7.332s14.236 38.563 35.917 45.644c21.68 7.083 38.947-14.102 15.363-42.414" transform="matrix(-1 0 0 1 425.753 -1) translate(.445 86.422)"></path><path fill="url(#prefix__aD)" fill-rule="nonzero" d="M163.194 80.552s7.788-5.24 10.443-2.899c2.655 2.343 20.329 34.41-3.603 45.181-21.938 9.873-39.783-22.845-39.833-27.169-.048-4.323 3.498-33.654 5.854-31.22 2.713 2.801 14.772 46.407 26.636 43.46 11.862-2.95-1.66-25.087.503-27.353" transform="matrix(-1 0 0 1 425.753 -1) translate(.445 86.422)"></path><path fill="#7E3E8F" fill-rule="nonzero" d="M122.31 7.63c-.722-.984-4.663-8.084-11.648-7.403-6.985.68-5.838 6.874-11.125 8.097-5.285 1.224-11.15 9.662-7.007 15.861 2.944 4.406-3.552 3.925-1.594 11.057.94 3.424 8.287 7.648 10.848 7.713 2.562.064 26.912-26.611 20.525-35.325" transform="matrix(-1 0 0 1 425.753 -1) translate(.445 86.422)"></path><path fill="url(#prefix__aE)" fill-rule="nonzero" d="M82.52 165.132s-.399-94.507 5.953-102.582c6.352-8.074 45.227-8.11 48.355 3.63 7.303 27.41 8.1 92.85 7.183 98.952 0 0-37.14 1.986-61.49 0" transform="matrix(-1 0 0 1 425.753 -1) translate(.445 86.422)"></path><path fill="#EF9A9B" fill-rule="nonzero" d="M104.118 36.379s-2.708-8.136-6.228-8.636c-3.52-.5-2.887 8.504 1.896 11.385 4.783 2.881 4.332-2.75 4.332-2.75" transform="matrix(-1 0 0 1 425.753 -1) translate(.445 86.422)"></path><path fill="#FE8D23" fill-rule="nonzero" d="M99.89 15.835s-6.92 32.207 15.204 32.204c19.224-.002 14.021-35.971 2.531-38.734-11.49-2.764-17.39 2.938-17.734 6.53" transform="matrix(-1 0 0 1 425.753 -1) translate(.445 86.422)"></path><path fill="#FE8D23" fill-rule="nonzero" d="M115.975 31.337s-.933 24.17 0 26.078c1.294 2.645-3.194 5.47-7.419 5.324-6.176-.214-6.176-5.339-6.176-5.339V25.762s10.209.914 13.595 5.575" transform="matrix(-1 0 0 1 425.753 -1) translate(.445 86.422)"></path><path fill="#7E3E8F" fill-rule="nonzero" d="M105.674 5.662c1.76-1.068 11.813-4.489 17.353 3.436 2.911 4.164-1.85 16.561-12.365 8.168-9.379-7.488-6.606 17.517-8.282 16.604-1.676-.914-3.295-5.82-4.666-3.669-1.406 2.207-.464 7.624 4.666 10.064 0 0 .197 3.093-.596 2.69-6.131-3.117-14.46-26.163 3.89-37.293" transform="matrix(-1 0 0 1 425.753 -1) translate(.445 86.422)"></path><path fill="#383A45" fill-rule="nonzero" d="M117.836 39.832c-1.804 0-2.317-1.584-2.322-1.6-.042-.137.034-.282.17-.324.137-.043.283.033.326.169.018.055.454 1.349 2.028 1.23 1.525-.114 1.526-1.034 1.525-1.074-.002-.142.11-.26.253-.265.115-.007.26.104.267.247 0 .014.035 1.456-2.007 1.609-.082.006-.162.008-.24.008M115.561 50.227c.199-.011.258-2.109.007-2.197-.252-.087-8.116-.614-10.355-3.776-2.24-3.163-.705 6.619 10.348 5.973M101.337 38.007c-.095 0-.188-.053-.233-.144-.063-.129-.011-.284.118-.348.141-.07.162-.33.163-.478.002-1.163-1.144-3.402-1.947-3.803-.623-.311-.832-.234-.867-.214-.019.142-.157.243-.304.232-.143-.02-.256-.141-.238-.283.016-.124.105-.303.299-.406.302-.162.74-.093 1.342.208 1.06.528 2.237 2.996 2.234 4.267 0 .594-.246.84-.452.942-.037.018-.075.027-.115.027" transform="matrix(-1 0 0 1 425.753 -1) translate(.445 86.422)"></path><path fill="#383A45" fill-rule="nonzero" d="M100.743 36.638c-.06 0-.119-.021-.168-.062-.103-.086-.996-.896-.868-2.758.01-.143.138-.254.277-.24.142.01.25.133.241.275-.112 1.635.653 2.3.685 2.327.11.093.123.256.031.365-.05.061-.125.093-.198.093M106.967 15.947s-4.587.523-3.9 9.893c.29 3.98 1.487 17.384 4.286 17.22 2.8-.163 5.517-5.519 10.439-5.918 4.923-.399 8.145 1.547 8.368 3.36.307 2.488.025 13.145-8.368 13.674-12.118.762-15.347-9.318-16.148-20.936-.8-11.616-1.048-17.8 5.323-17.293M89.527 186.034c-.099 0-.193-.057-.237-.152-.06-.13-.001-.284.13-.343 6.978-3.148 7.028-20.234 7.028-20.407 0-.143.116-.26.26-.26.143 0 .259.116.26.26 0 .044-.002 4.426-.89 9.149-1.203 6.398-3.37 10.344-6.444 11.73-.034.016-.07.023-.107.023M117.235 182.495c-.132 0-.245-.102-.259-.235l-1.53-16.553c-.013-.143.092-.27.234-.283.14-.016.27.093.283.235l1.532 16.554c.012.141-.093.268-.236.281l-.024.001" transform="matrix(-1 0 0 1 425.753 -1) translate(.445 86.422)"></path><path fill="#383A45" fill-rule="nonzero" d="M116.929 179.192c-.134 0-.248-.129-.26-.265-.019-.193.118-.356.392-.68 1.03-1.22 3.769-4.463 2.591-13.08-.02-.142.08-.273.223-.293.138-.013.273.081.292.222 1.21 8.847-1.74 12.339-2.708 13.485-.12.143-.257.304-.279.357.014.143-.09.24-.231.253h-.02M144.599 179.187c-3 0-5.757-2.239-8.001-6.513-1.776-3.381-2.628-6.897-2.636-6.932-.035-.139.052-.278.192-.312.14-.036.28.053.313.193.032.137 3.361 13.69 10.643 13.024.137-.016.27.09.283.233.013.142-.093.268-.235.282-.187.016-.374.025-.559.025M103.164 183.362c-.11 0-.213-.07-.249-.183-.042-.137.034-.28.17-.323 1.66-.518 6.925-.571 10.2-.587-3.703-1.081-9.904-3.74-10.224-3.877-.132-.057-.192-.208-.135-.34.056-.133.209-.193.34-.136.095.04 9.558 4.098 12.094 4.28.408.028.613.044.604.307-.009.274-.009.274-2.017.281-2.923.012-9.006.037-10.705.565-.026.009-.053.013-.078.013M129.033 184.498c-.029 0-.058-.005-.087-.015-1.004-.357-3.487-.654-5.483-.892-3.262-.388-3.526-.45-3.525-.812 0-.305.357-.37.948-.437 3.151-.368 6.586-6.588 6.62-6.65.07-.125.227-.17.353-.104.126.07.173.226.104.353-.141.256-3.363 6.091-6.66 6.853.618.091 1.449.191 2.222.283 2.127.253 4.537.54 5.595.919.136.047.206.196.157.33-.037.108-.137.172-.244.172" transform="matrix(-1 0 0 1 425.753 -1) translate(.445 86.422)"></path><path fill="url(#prefix__aF)" fill-rule="nonzero" d="M99.539 57.817c-9.664.72-20.591.868-29.096 29.23-2.948 9.831-4.239 32.847-15.894 47.648-11.251 14.287-15.985 19.44-15.985 19.44s1.737 7.6 7.798 9.604c6.062 2.004 16.417-9.962 21.201-16.494 17.612-24.043 18.04-46.746 21.964-51.58 3.924-4.833 4.728-10.433 4.728-10.433l5.284-27.415z" transform="matrix(-1 0 0 1 425.753 -1) translate(.445 86.422)"></path><path fill="#FFFAEF" fill-rule="nonzero" d="M117.836 39.832c-1.804 0-2.317-1.584-2.322-1.6-.042-.137.034-.282.17-.324.137-.043.283.033.326.169.018.055.454 1.349 2.028 1.23 1.525-.114 1.526-1.034 1.525-1.074-.002-.142.11-.26.253-.265.115-.007.26.104.267.247 0 .014.035 1.456-2.007 1.609-.082.006-.162.008-.24.008" transform="matrix(-1 0 0 1 425.753 -1) translate(.445 86.422)"></path></g></g></svg> 